<?xml version="1.0" encoding="utf-8"?>
<!DOCTYPE svg PUBLIC "-//W3C//DTD SVG 1.1//EN" "http://www.w3.org/Graphics/SVG/1.1/DTD/svg11.dtd">
<svg xmlns="http://www.w3.org/2000/svg" xmlns:xlink="http://www.w3.org/1999/xlink" version="1.1" baseProfile="full" width="960" height="300" viewBox="0 0 960.00 300.00" enable-background="new 0 0 960.00 300.00" xml:space="preserve">
	<rect x="0.00016276" y="0" fill="#2196F3" fill-opacity="1" stroke-width="0.2" stroke-linejoin="round" width="960" height="300"/>
	<g>
		<path fill="#FFFFFF" fill-opacity="1" stroke-linejoin="round" d="M 68.3333,271.342C 68.3333,270.314 67.9472,269.474 67.175,268.821C 66.4028,268.168 65.0569,267.592 63.1375,267.092C 61.0625,266.572 59.4917,265.897 58.425,265.065C 57.3583,264.233 56.825,263.111 56.825,261.7C 56.825,260.253 57.4215,259.074 58.6146,258.165C 59.8076,257.255 61.3417,256.8 63.2167,256.8C 65.1694,256.8 66.7451,257.342 67.9437,258.427C 69.1424,259.512 69.7236,260.835 69.6875,262.396L 69.65,262.475L 68.2167,262.475C 68.2167,261.211 67.7674,260.172 66.8688,259.356C 65.9701,258.541 64.7528,258.133 63.2167,258.133C 61.6972,258.133 60.5097,258.472 59.6542,259.15C 58.7986,259.828 58.3708,260.671 58.3708,261.679C 58.3708,262.635 58.766,263.432 59.5562,264.071C 60.3465,264.71 61.7097,265.272 63.6458,265.758C 65.6847,266.278 67.2361,266.978 68.3,267.858C 69.3639,268.739 69.8958,269.9 69.8958,271.342C 69.8958,272.844 69.2771,274.041 68.0396,274.931C 66.8021,275.822 65.225,276.267 63.3083,276.267C 61.4167,276.267 59.7653,275.792 58.3542,274.842C 56.9431,273.892 56.2597,272.506 56.3042,270.683L 56.3292,270.604L 57.7625,270.604C 57.7625,272.074 58.3132,273.163 59.4146,273.871C 60.516,274.579 61.8139,274.933 63.3083,274.933C 64.8083,274.933 66.0208,274.605 66.9458,273.948C 67.8708,273.291 68.3333,272.422 68.3333,271.342 Z "/>
		<path fill="#FFFFFF" fill-opacity="1" stroke-linejoin="round" d="M 78.8125,272.796L 79.1917,274.058L 79.2667,274.058L 79.6458,272.796L 85.3375,257.067L 87.0292,257.067L 79.9583,276L 78.4875,276L 71.4167,257.067L 73.1083,257.067L 78.8125,272.796 Z "/>
		<path fill="#FFFFFF" fill-opacity="1" stroke-linejoin="round" d="M 103.55,273.725C 103.125,274.344 102.35,274.923 101.225,275.46C 100.1,275.998 98.6833,276.267 96.975,276.267C 94.7694,276.267 92.9611,275.517 91.55,274.019C 90.1389,272.52 89.4333,270.579 89.4333,268.196L 89.4333,264.725C 89.4333,262.386 90.1042,260.481 91.4458,259.008C 92.7875,257.536 94.5264,256.8 96.6625,256.8C 98.7014,256.8 100.296,257.31 101.446,258.331C 102.596,259.352 103.262,260.678 103.446,262.308L 103.421,262.388L 101.975,262.388C 101.747,261.121 101.212,260.095 100.371,259.31C 99.5292,258.526 98.293,258.133 96.6625,258.133C 94.9597,258.133 93.5896,258.747 92.5521,259.975C 91.5146,261.203 90.9958,262.776 90.9958,264.696L 90.9958,268.188C 90.9958,270.16 91.5472,271.777 92.65,273.04C 93.7528,274.302 95.1944,274.933 96.975,274.933C 98.2333,274.933 99.3028,274.756 100.183,274.402C 101.064,274.048 101.665,273.661 101.987,273.242L 101.987,268.267L 96.9458,268.267L 96.9458,266.933L 103.55,266.933L 103.55,273.725 Z "/>
		<path fill="#FFFFFF" fill-opacity="1" stroke-linejoin="round" d="M 171.079,272.796L 171.458,274.058L 171.533,274.058L 171.912,272.796L 177.604,257.067L 179.296,257.067L 172.225,276L 170.754,276L 163.683,257.067L 165.375,257.067L 171.079,272.796 Z "/>
		<path fill="#FFFFFF" fill-opacity="1" stroke-linejoin="round" d="M 187.146,276.267C 185.382,276.267 183.917,275.614 182.75,274.308C 181.583,273.003 181,271.349 181,269.346L 181,268.625C 181,266.606 181.579,264.93 182.737,263.598C 183.896,262.266 185.3,261.6 186.95,261.6C 188.678,261.6 190.036,262.156 191.025,263.269C 192.014,264.381 192.508,265.864 192.508,267.717L 192.508,269.067L 182.562,269.067L 182.562,269.438C 182.562,271.001 182.983,272.308 183.825,273.358C 184.667,274.408 185.774,274.933 187.146,274.933C 188.118,274.933 188.947,274.799 189.631,274.529C 190.316,274.26 190.901,273.874 191.387,273.371L 192.054,274.438C 191.524,274.996 190.853,275.44 190.042,275.771C 189.231,276.101 188.265,276.267 187.146,276.267 Z M 186.95,262.933C 185.794,262.933 184.826,263.383 184.046,264.283C 183.265,265.183 182.81,266.311 182.679,267.667L 182.704,267.733L 190.958,267.733L 190.958,267.333C 190.958,266.083 190.598,265.038 189.877,264.196C 189.156,263.354 188.181,262.933 186.95,262.933 Z "/>
		<path fill="#FFFFFF" fill-opacity="1" stroke-linejoin="round" d="M 200.946,274.933C 201.979,274.933 202.891,274.64 203.681,274.052C 204.472,273.465 204.867,272.649 204.867,271.604L 206.246,271.604L 206.271,271.683C 206.315,272.986 205.794,274.076 204.708,274.952C 203.622,275.828 202.368,276.267 200.946,276.267C 199.026,276.267 197.544,275.607 196.498,274.288C 195.452,272.968 194.929,271.272 194.929,269.2L 194.929,268.654C 194.929,266.599 195.454,264.909 196.504,263.585C 197.554,262.262 199.031,261.6 200.933,261.6C 202.478,261.6 203.765,262.056 204.794,262.967C 205.823,263.878 206.319,265.075 206.283,266.558L 206.258,266.638L 204.867,266.638C 204.867,265.51 204.487,264.61 203.727,263.94C 202.967,263.269 202.036,262.933 200.933,262.933C 199.422,262.933 198.304,263.474 197.579,264.556C 196.854,265.638 196.492,267.001 196.492,268.646L 196.492,269.196C 196.492,270.865 196.852,272.239 197.573,273.317C 198.294,274.394 199.418,274.933 200.946,274.933 Z "/>
		<path fill="#FFFFFF" fill-opacity="1" stroke-linejoin="round" d="M 212.037,258.133L 212.037,261.867L 215.137,261.867L 215.137,263.2L 212.037,263.2L 212.037,272.392C 212.037,273.314 212.205,273.968 212.54,274.354C 212.874,274.74 213.319,274.933 213.875,274.933C 214.128,274.933 214.373,274.923 214.61,274.902C 214.848,274.881 215.124,274.844 215.438,274.792L 215.671,275.925C 215.41,276.033 215.093,276.117 214.721,276.177C 214.349,276.237 213.975,276.267 213.6,276.267C 212.611,276.267 211.841,275.955 211.29,275.331C 210.738,274.708 210.463,273.719 210.463,272.367L 210.463,263.2L 208.029,263.2L 208.029,261.867L 210.463,261.867L 210.463,258.133L 212.037,258.133 Z "/>
		<path fill="#FFFFFF" fill-opacity="1" stroke-linejoin="round" d="M 217.517,268.717C 217.517,266.636 218.085,264.93 219.223,263.598C 220.36,262.266 221.867,261.6 223.742,261.6C 225.625,261.6 227.135,262.266 228.273,263.598C 229.41,264.93 229.979,266.636 229.979,268.717L 229.979,269.15C 229.979,271.239 229.412,272.947 228.279,274.275C 227.146,275.603 225.642,276.267 223.767,276.267C 221.875,276.267 220.36,275.603 219.223,274.275C 218.085,272.947 217.517,271.239 217.517,269.15L 217.517,268.717 Z M 219.079,269.142C 219.079,270.778 219.492,272.152 220.317,273.265C 221.142,274.377 222.292,274.933 223.767,274.933C 225.217,274.933 226.356,274.377 227.185,273.265C 228.015,272.152 228.429,270.778 228.429,269.142L 228.429,268.712C 228.429,267.104 228.012,265.739 227.179,264.617C 226.346,263.494 225.2,262.933 223.742,262.933C 222.283,262.933 221.142,263.494 220.317,264.617C 219.492,265.739 219.079,267.104 219.079,268.712L 219.079,269.142 Z "/>
		<path fill="#FFFFFF" fill-opacity="1" stroke-linejoin="round" d="M 239.808,263.013L 238.65,262.933C 237.669,262.933 236.865,263.214 236.235,263.775C 235.606,264.336 235.157,265.108 234.887,266.092L 234.887,276L 233.325,276L 233.325,261.867L 234.692,261.867L 234.887,264.212L 234.887,264.371C 235.296,263.499 235.842,262.819 236.527,262.331C 237.212,261.844 238.028,261.6 238.975,261.6C 239.175,261.6 239.368,261.613 239.554,261.64C 239.74,261.666 239.894,261.694 240.017,261.725L 239.808,263.013 Z "/>
		<path fill="#FFFFFF" fill-opacity="1" stroke-linejoin="round" d="M 249.221,276L 249.221,257.067L 254.729,257.067C 257.046,257.067 258.96,257.838 260.471,259.381C 261.982,260.924 262.737,262.906 262.737,265.325L 262.737,267.754C 262.737,270.182 261.982,272.163 260.471,273.698C 258.96,275.233 257.046,276 254.729,276L 249.221,276 Z M 250.771,258.4L 250.771,274.667L 254.729,274.667C 256.604,274.667 258.147,274.013 259.358,272.706C 260.569,271.399 261.175,269.746 261.175,267.746L 261.175,265.279C 261.175,263.307 260.567,261.667 259.352,260.36C 258.137,259.053 256.596,258.4 254.729,258.4L 250.771,258.4 Z "/>
		<path fill="#FFFFFF" fill-opacity="1" stroke-linejoin="round" d="M 272.875,263.013L 271.717,262.933C 270.736,262.933 269.931,263.214 269.302,263.775C 268.673,264.336 268.224,265.108 267.954,266.092L 267.954,276L 266.392,276L 266.392,261.867L 267.758,261.867L 267.954,264.212L 267.954,264.371C 268.362,263.499 268.909,262.819 269.594,262.331C 270.278,261.844 271.094,261.6 272.042,261.6C 272.242,261.6 272.435,261.613 272.621,261.64C 272.807,261.666 272.961,261.694 273.083,261.725L 272.875,263.013 Z "/>
		<path fill="#FFFFFF" fill-opacity="1" stroke-linejoin="round" d="M 284.375,276C 284.272,275.519 284.199,275.105 284.156,274.756C 284.113,274.408 284.092,274.054 284.092,273.696C 283.569,274.435 282.874,275.048 282.006,275.535C 281.138,276.023 280.162,276.267 279.079,276.267C 277.707,276.267 276.641,275.904 275.881,275.179C 275.121,274.454 274.742,273.485 274.742,272.271C 274.742,270.976 275.303,269.941 276.427,269.165C 277.551,268.388 279.068,268 280.979,268L 284.092,268L 284.092,266.221C 284.092,265.196 283.768,264.392 283.121,263.808C 282.474,263.225 281.568,262.933 280.404,262.933C 279.321,262.933 278.421,263.212 277.704,263.771C 276.987,264.329 276.629,265.011 276.629,265.817L 275.196,265.804L 275.171,265.725C 275.118,264.658 275.597,263.704 276.608,262.862C 277.619,262.021 278.907,261.6 280.471,261.6C 282.024,261.6 283.274,261.997 284.221,262.79C 285.168,263.583 285.642,264.719 285.642,266.2L 285.642,273.15C 285.642,273.647 285.669,274.131 285.725,274.602C 285.781,275.073 285.874,275.539 286.004,276L 284.375,276 Z M 279.258,274.933C 280.378,274.933 281.367,274.665 282.227,274.129C 283.087,273.593 283.708,272.91 284.092,272.079L 284.092,269.333L 280.954,269.333C 279.537,269.333 278.406,269.628 277.56,270.217C 276.715,270.806 276.292,271.536 276.292,272.408C 276.292,273.153 276.554,273.76 277.079,274.229C 277.604,274.699 278.331,274.933 279.258,274.933 Z "/>
		<path fill="#FFFFFF" fill-opacity="1" stroke-linejoin="round" d="M 292.892,271.421L 293.425,273.942L 293.504,273.942L 294.167,271.421L 297.163,261.867L 298.504,261.867L 301.5,271.421L 302.175,274.008L 302.254,274.008L 302.837,271.421L 305.404,261.867L 307.021,261.867L 302.917,276L 301.587,276L 298.462,266.329L 297.854,263.883L 297.775,263.883L 297.15,266.329L 294.075,276L 292.733,276L 288.646,261.867L 290.262,261.867L 292.892,271.421 Z "/>
		<path fill="#FFFFFF" fill-opacity="1" stroke-linejoin="round" d="M 319.042,276C 318.939,275.519 318.866,275.105 318.823,274.756C 318.78,274.408 318.758,274.054 318.758,273.696C 318.236,274.435 317.541,275.048 316.673,275.535C 315.805,276.023 314.829,276.267 313.746,276.267C 312.374,276.267 311.308,275.904 310.548,275.179C 309.788,274.454 309.408,273.485 309.408,272.271C 309.408,270.976 309.97,269.941 311.094,269.165C 312.217,268.388 313.735,268 315.646,268L 318.758,268L 318.758,266.221C 318.758,265.196 318.435,264.392 317.787,263.808C 317.14,263.225 316.235,262.933 315.071,262.933C 313.987,262.933 313.087,263.212 312.371,263.771C 311.654,264.329 311.296,265.011 311.296,265.817L 309.862,265.804L 309.837,265.725C 309.785,264.658 310.264,263.704 311.275,262.862C 312.286,262.021 313.574,261.6 315.137,261.6C 316.69,261.6 317.94,261.997 318.887,262.79C 319.835,263.583 320.308,264.719 320.308,266.2L 320.308,273.15C 320.308,273.647 320.336,274.131 320.392,274.602C 320.447,275.073 320.54,275.539 320.671,276L 319.042,276 Z M 313.925,274.933C 315.044,274.933 316.034,274.665 316.894,274.129C 317.753,273.593 318.375,272.91 318.758,272.079L 318.758,269.333L 315.621,269.333C 314.204,269.333 313.073,269.628 312.227,270.217C 311.381,270.806 310.958,271.536 310.958,272.408C 310.958,273.153 311.221,273.76 311.746,274.229C 312.271,274.699 312.997,274.933 313.925,274.933 Z "/>
		<path fill="#FFFFFF" fill-opacity="1" stroke-linejoin="round" d="M 335.879,269.317C 335.879,271.433 335.401,273.121 334.446,274.379C 333.49,275.638 332.175,276.267 330.5,276.267C 329.467,276.267 328.577,276.06 327.831,275.646C 327.085,275.232 326.482,274.638 326.021,273.862L 325.854,276L 324.512,276L 324.512,255.733L 326.075,255.733L 326.075,264.083C 326.542,263.292 327.14,262.68 327.869,262.248C 328.598,261.816 329.467,261.6 330.475,261.6C 332.167,261.6 333.49,262.277 334.446,263.631C 335.401,264.985 335.879,266.79 335.879,269.046L 335.879,269.317 Z M 334.304,269.046C 334.304,267.235 333.957,265.763 333.262,264.631C 332.568,263.499 331.539,262.933 330.175,262.933C 329.089,262.933 328.214,263.204 327.55,263.746C 326.886,264.288 326.394,264.983 326.075,265.833L 326.075,272.246C 326.422,273.068 326.941,273.722 327.631,274.206C 328.322,274.691 329.178,274.933 330.2,274.933C 331.564,274.933 332.589,274.426 333.275,273.413C 333.961,272.399 334.304,271.035 334.304,269.321L 334.304,269.046 Z "/>
		<rect x="339.654" y="255.733" fill="#FFFFFF" fill-opacity="1" stroke-linejoin="round" width="1.54999" height="20.2667"/>
		<path fill="#FFFFFF" fill-opacity="1" stroke-linejoin="round" d="M 350.879,276.267C 349.115,276.267 347.65,275.614 346.483,274.308C 345.317,273.003 344.733,271.349 344.733,269.346L 344.733,268.625C 344.733,266.606 345.312,264.93 346.471,263.598C 347.629,262.266 349.033,261.6 350.683,261.6C 352.411,261.6 353.769,262.156 354.758,263.269C 355.747,264.381 356.242,265.864 356.242,267.717L 356.242,269.067L 346.296,269.067L 346.296,269.438C 346.296,271.001 346.717,272.308 347.558,273.358C 348.4,274.408 349.507,274.933 350.879,274.933C 351.851,274.933 352.68,274.799 353.365,274.529C 354.049,274.26 354.635,273.874 355.121,273.371L 355.787,274.438C 355.257,274.996 354.586,275.44 353.775,275.771C 352.964,276.101 351.999,276.267 350.879,276.267 Z M 350.683,262.933C 349.528,262.933 348.56,263.383 347.779,264.283C 346.999,265.183 346.543,266.311 346.412,267.667L 346.437,267.733L 354.692,267.733L 354.692,267.333C 354.692,266.083 354.331,265.038 353.61,264.196C 352.89,263.354 351.914,262.933 350.683,262.933 Z "/>
		<path fill="#FFFFFF" fill-opacity="1" stroke-linejoin="round" d="M 367.896,272.392C 367.896,271.733 367.624,271.157 367.081,270.663C 366.538,270.168 365.56,269.764 364.146,269.45C 362.462,269.083 361.219,268.6 360.415,268C 359.61,267.4 359.208,266.551 359.208,265.454C 359.208,264.374 359.662,263.461 360.571,262.717C 361.479,261.972 362.679,261.6 364.171,261.6C 365.76,261.6 367.019,261.992 367.948,262.777C 368.877,263.562 369.319,264.544 369.275,265.725L 369.25,265.804L 367.804,265.804C 367.804,265.035 367.476,264.364 366.821,263.792C 366.165,263.219 365.282,262.933 364.171,262.933C 363.035,262.933 362.182,263.178 361.612,263.667C 361.043,264.156 360.758,264.729 360.758,265.388C 360.758,266.038 361.003,266.575 361.494,267C 361.984,267.425 362.964,267.797 364.433,268.117C 366.108,268.492 367.362,269.005 368.196,269.656C 369.029,270.308 369.446,271.192 369.446,272.308C 369.446,273.489 368.97,274.444 368.019,275.173C 367.067,275.902 365.811,276.267 364.25,276.267C 362.539,276.267 361.195,275.858 360.219,275.042C 359.242,274.225 358.781,273.253 358.833,272.125L 358.858,272.046L 360.292,272.046C 360.353,273.057 360.767,273.791 361.535,274.248C 362.303,274.705 363.208,274.933 364.25,274.933C 365.378,274.933 366.267,274.686 366.919,274.192C 367.57,273.697 367.896,273.097 367.896,272.392 Z "/>
		<path fill="#FFFFFF" fill-opacity="1" stroke-linejoin="round" d="M 436.779,265.154L 442.129,257.067L 444.017,257.067L 437.717,266.404L 444.225,276L 442.362,276L 436.804,267.654L 431.258,276L 429.367,276L 435.879,266.404L 429.562,257.067L 431.45,257.067L 436.779,265.154 Z "/>
		<path fill="#FFFFFF" fill-opacity="1" stroke-linejoin="round" d="M 457.537,270.667L 448.85,270.667L 446.9,276L 445.283,276L 452.483,257.067L 453.954,257.067L 461.104,276L 459.487,276L 457.537,270.667 Z M 449.371,269.333L 457.029,269.333L 453.254,259.083L 453.175,259.083L 449.371,269.333 Z "/>
		<path fill="#FFFFFF" fill-opacity="1" stroke-linejoin="round" d="M 465.933,257.067L 472.896,273.733L 472.975,273.733L 479.967,257.067L 482.025,257.067L 482.025,276L 480.475,276L 480.475,267.638L 480.604,259.354L 480.529,259.329L 473.483,276L 472.404,276L 465.371,259.408L 465.292,259.421L 465.437,267.638L 465.437,276L 463.887,276L 463.887,257.067L 465.933,257.067 Z "/>
		<path fill="#FFFFFF" fill-opacity="1" stroke-linejoin="round" d="M 488.65,274.667L 498.025,274.667L 498.025,276L 487.087,276L 487.087,257.067L 488.65,257.067L 488.65,274.667 Z "/>
		<path fill="#FFFFFF" fill-opacity="1" stroke-linejoin="round" d="M 568.529,270.642L 569.1,273.542L 569.179,273.554L 569.896,270.642L 573.904,257.067L 575.375,257.067L 579.387,270.642L 580.079,273.567L 580.154,273.554L 580.766,270.642L 584.191,257.067L 585.779,257.067L 580.912,276L 579.437,276L 575.183,261.475L 574.687,259.487L 574.608,259.487L 574.125,261.475L 569.829,276L 568.346,276L 563.475,257.067L 565.079,257.067L 568.529,270.642 Z "/>
		<path fill="#FFFFFF" fill-opacity="1" stroke-linejoin="round" d="M 594.079,276.267C 592.315,276.267 590.85,275.614 589.683,274.308C 588.516,273.003 587.933,271.349 587.933,269.346L 587.933,268.625C 587.933,266.606 588.512,264.93 589.671,263.598C 590.829,262.266 592.233,261.6 593.883,261.6C 595.611,261.6 596.969,262.156 597.958,263.269C 598.947,264.381 599.441,265.864 599.441,267.717L 599.441,269.067L 589.496,269.067L 589.496,269.438C 589.496,271.001 589.916,272.308 590.758,273.358C 591.6,274.408 592.707,274.933 594.079,274.933C 595.051,274.933 595.88,274.799 596.564,274.529C 597.249,274.26 597.834,273.874 598.321,273.371L 598.987,274.438C 598.457,274.996 597.786,275.44 596.975,275.771C 596.164,276.101 595.198,276.267 594.079,276.267 Z M 593.883,262.933C 592.728,262.933 591.759,263.383 590.979,264.283C 590.198,265.183 589.743,266.311 589.612,267.667L 589.637,267.733L 597.891,267.733L 597.891,267.333C 597.891,266.083 597.531,265.038 596.81,264.196C 596.089,263.354 595.114,262.933 593.883,262.933 Z "/>
		<path fill="#FFFFFF" fill-opacity="1" stroke-linejoin="round" d="M 614.012,269.317C 614.012,271.433 613.534,273.121 612.579,274.379C 611.623,275.638 610.308,276.267 608.633,276.267C 607.6,276.267 606.71,276.06 605.964,275.646C 605.218,275.232 604.615,274.638 604.154,273.862L 603.987,276L 602.646,276L 602.646,255.733L 604.208,255.733L 604.208,264.083C 604.675,263.292 605.273,262.68 606.002,262.248C 606.731,261.816 607.6,261.6 608.608,261.6C 610.3,261.6 611.623,262.277 612.579,263.631C 613.534,264.985 614.012,266.79 614.012,269.046L 614.012,269.317 Z M 612.437,269.046C 612.437,267.235 612.09,265.763 611.396,264.631C 610.701,263.499 609.672,262.933 608.308,262.933C 607.222,262.933 606.347,263.204 605.683,263.746C 605.019,264.288 604.527,264.983 604.208,265.833L 604.208,272.246C 604.555,273.068 605.074,273.722 605.764,274.206C 606.455,274.691 607.311,274.933 608.333,274.933C 609.697,274.933 610.722,274.426 611.408,273.413C 612.094,272.399 612.437,271.035 612.437,269.321L 612.437,269.046 Z "/>
		<path fill="#FFFFFF" fill-opacity="1" stroke-linejoin="round" d="M 618.725,276L 618.725,263.2L 616.391,263.2L 616.391,261.867L 618.725,261.867L 618.725,259.842C 618.725,258.447 619.078,257.369 619.785,256.608C 620.492,255.847 621.483,255.467 622.758,255.467C 623.047,255.467 623.339,255.488 623.633,255.529C 623.927,255.571 624.226,255.631 624.529,255.708L 624.337,256.971C 624.129,256.918 623.914,256.876 623.691,256.846C 623.469,256.815 623.211,256.8 622.916,256.8C 622.066,256.8 621.416,257.066 620.964,257.598C 620.513,258.13 620.287,258.875 620.287,259.833L 620.287,261.867L 623.646,261.867L 623.646,263.2L 620.287,263.2L 620.287,276L 618.725,276 Z "/>
		<path fill="#FFFFFF" fill-opacity="1" stroke-linejoin="round" d="M 625.516,268.717C 625.516,266.636 626.085,264.93 627.223,263.598C 628.36,262.266 629.866,261.6 631.741,261.6C 633.625,261.6 635.135,262.266 636.273,263.598C 637.41,264.93 637.979,266.636 637.979,268.717L 637.979,269.15C 637.979,271.239 637.412,272.947 636.279,274.275C 635.146,275.603 633.641,276.267 631.766,276.267C 629.875,276.267 628.36,275.603 627.223,274.275C 626.085,272.947 625.516,271.239 625.516,269.15L 625.516,268.717 Z M 627.079,269.142C 627.079,270.778 627.491,272.152 628.316,273.265C 629.141,274.377 630.291,274.933 631.766,274.933C 633.216,274.933 634.356,274.377 635.185,273.265C 636.014,272.152 636.429,270.778 636.429,269.142L 636.429,268.712C 636.429,267.104 636.012,265.739 635.179,264.617C 634.346,263.494 633.2,262.933 631.741,262.933C 630.283,262.933 629.141,263.494 628.316,264.617C 627.491,265.739 627.079,267.104 627.079,268.712L 627.079,269.142 Z "/>
		<path fill="#FFFFFF" fill-opacity="1" stroke-linejoin="round" d="M 642.704,261.867L 642.846,264.329C 643.298,263.46 643.909,262.788 644.677,262.313C 645.445,261.837 646.354,261.6 647.404,261.6C 648.932,261.6 650.095,262.068 650.893,263.004C 651.692,263.94 652.091,265.401 652.091,267.388L 652.091,276L 650.529,276L 650.529,267.383C 650.529,265.761 650.227,264.614 649.625,263.942C 649.022,263.269 648.165,262.933 647.054,262.933C 645.959,262.933 645.067,263.224 644.377,263.804C 643.687,264.385 643.19,265.156 642.887,266.117L 642.887,276L 641.325,276L 641.325,261.867L 642.704,261.867 Z "/>
		<path fill="#FFFFFF" fill-opacity="1" stroke-linejoin="round" d="M 658.704,258.133L 658.704,261.867L 661.804,261.867L 661.804,263.2L 658.704,263.2L 658.704,272.392C 658.704,273.314 658.871,273.968 659.206,274.354C 659.541,274.74 659.986,274.933 660.541,274.933C 660.794,274.933 661.039,274.923 661.277,274.902C 661.514,274.881 661.79,274.844 662.104,274.792L 662.337,275.925C 662.076,276.033 661.759,276.117 661.387,276.177C 661.015,276.237 660.641,276.267 660.266,276.267C 659.278,276.267 658.507,275.955 657.956,275.331C 657.405,274.708 657.129,273.719 657.129,272.367L 657.129,263.2L 654.696,263.2L 654.696,261.867L 657.129,261.867L 657.129,258.133L 658.704,258.133 Z "/>
	</g>
	<path fill="#FFFFFF" fill-opacity="1" stroke-width="0.2" stroke-linejoin="round" d="M 32.8931,256.989L 34.8494,257.405L 31.1069,275.011L 29.1506,274.595L 32.8931,256.989 Z M 39.5858,265.993L 36,262.407L 36,259.578L 42.4216,266L 36,272.41L 36,269.578L 39.5858,265.993 Z M 21.5784,266.003L 28,259.581L 28,262.41L 24.4142,265.996L 28,269.581L 28,272.413L 21.5784,266.003 Z "/>
	<rect x="19" y="247" fill="#FFFFFF" fill-opacity="0.403922" stroke-width="0.2" stroke-linejoin="round" width="0.999998" height="38"/>
	<rect x="44" y="247" fill="#FFFFFF" fill-opacity="0.403922" stroke-width="0.2" stroke-linejoin="round" width="1" height="38"/>
	<rect x="13" y="253" fill="#FFFFFF" fill-opacity="0.403922" stroke-width="0.2" stroke-linejoin="round" width="38" height="1"/>
	<rect x="13" y="278" fill="#FFFFFF" fill-opacity="0.403922" stroke-width="0.2" stroke-linejoin="round" width="38" height="1"/>
	<path fill="#FFFFFF" fill-opacity="1" stroke-width="0.2" stroke-linejoin="round" d="M 141.999,258.998L 140.999,258.998L 140.999,257.998L 141.999,257.998M 136.999,258.998L 135.999,258.998L 135.999,257.998L 136.999,257.998M 142.531,256.156L 143.835,254.852C 144.03,254.656 144.03,254.34 143.835,254.144C 143.64,253.949 143.323,253.949 143.128,254.144L 141.651,255.622C 140.85,255.226 139.952,254.998 138.999,254.998C 138.041,254.998 137.139,255.229 136.336,255.627L 134.853,254.144C 134.657,253.949 134.341,253.949 134.145,254.144C 133.95,254.34 133.95,254.656 134.145,254.852L 135.457,256.163C 133.969,257.255 132.999,259.011 132.999,260.998L 144.999,260.998C 144.999,259.007 144.025,257.247 142.531,256.156 Z M 147.499,261.998C 146.671,261.998 145.999,262.669 145.999,263.498L 145.999,270.498C 145.999,271.327 146.671,271.998 147.499,271.998C 148.327,271.998 148.999,271.327 148.999,270.498L 148.999,263.498C 148.999,262.669 148.327,261.998 147.499,261.998 Z M 130.499,261.998C 129.671,261.998 128.999,262.669 128.999,263.498L 128.999,270.498C 128.999,271.327 129.671,271.998 130.499,271.998C 131.327,271.998 131.999,271.327 131.999,270.498L 131.999,263.498C 131.999,262.669 131.327,261.998 130.499,261.998 Z M 132.999,271.998C 132.999,272.549 133.448,272.998 133.999,272.998L 134.999,272.998L 134.999,276.498C 134.999,277.327 135.671,277.998 136.499,277.998C 137.327,277.998 137.999,277.327 137.999,276.498L 137.999,272.998L 139.999,272.998L 139.999,276.498C 139.999,277.327 140.671,277.998 141.499,277.998C 142.327,277.998 142.999,277.327 142.999,276.498L 142.999,272.998L 143.999,272.998C 144.55,272.998 144.999,272.549 144.999,271.998L 144.999,261.998L 132.999,261.998L 132.999,271.998 Z "/>
	<rect x="126" y="247" fill="#FFFFFF" fill-opacity="0.403922" stroke-width="0.2" stroke-linejoin="round" width="1" height="38"/>
	<rect x="151" y="247" fill="#FFFFFF" fill-opacity="0.403922" stroke-width="0.2" stroke-linejoin="round" width="1" height="38"/>
	<rect x="120" y="253" fill="#FFFFFF" fill-opacity="0.403922" stroke-width="0.2" stroke-linejoin="round" width="38" height="1"/>
	<rect x="120" y="278" fill="#FFFFFF" fill-opacity="0.403922" stroke-width="0.2" stroke-linejoin="round" width="38" height="1"/>
	<rect x="392" y="247" fill="#FFFFFF" fill-opacity="0.403922" stroke-width="0.2" stroke-linejoin="round" width="1" height="38"/>
	<rect x="417" y="247" fill="#FFFFFF" fill-opacity="0.403922" stroke-width="0.2" stroke-linejoin="round" width="1" height="38"/>
	<rect x="386" y="253" fill="#FFFFFF" fill-opacity="0.403922" stroke-width="0.2" stroke-linejoin="round" width="38" height="1"/>
	<rect x="386" y="278" fill="#FFFFFF" fill-opacity="0.403922" stroke-width="0.2" stroke-linejoin="round" width="38" height="1"/>
	<path fill="#FFFFFF" fill-opacity="1" stroke-width="0.2" stroke-linejoin="round" d="M 396,266L 396,260.75L 402,259.426L 402,265.912L 396,266 Z M 413,257L 413,265.75L 403,265.897L 403,259.206L 413,257 Z M 396,267L 402,267.088L 402,273.897L 396,272.75L 396,267 Z M 413,267.25L 413,276L 403,274.088L 403,267.103L 413,267.25 Z "/>
	<g>
		<path fill="#FFFFFF" fill-opacity="1" stroke-linejoin="round" d="M 253.889,151.1L 253.933,151.219C 253.683,154.069 252.667,156.311 250.883,157.947C 249.1,159.582 246.71,160.4 243.714,160.4C 240.552,160.4 238.001,159.259 236.061,156.978C 234.122,154.697 233.152,151.744 233.152,148.119L 233.152,143.5C 233.152,139.887 234.122,136.934 236.061,134.64C 238.001,132.347 240.552,131.2 243.714,131.2C 246.735,131.2 249.131,132.001 250.902,133.603C 252.673,135.205 253.683,137.456 253.933,140.356L 253.889,140.475L 251.702,140.475C 251.389,138.121 250.579,136.32 249.271,135.072C 247.962,133.824 246.11,133.2 243.714,133.2C 241.227,133.2 239.231,134.16 237.727,136.081C 236.223,138.002 235.471,140.46 235.471,143.456L 235.471,148.106C 235.471,151.144 236.223,153.619 237.727,155.531C 239.231,157.444 241.227,158.4 243.714,158.4C 246.11,158.4 247.965,157.789 249.28,156.569C 250.595,155.348 251.402,153.525 251.702,151.1L 253.889,151.1 Z "/>
		<path fill="#FFFFFF" fill-opacity="1" stroke-linejoin="round" d="M 257.946,149.075C 257.946,145.954 258.799,143.395 260.505,141.397C 262.211,139.399 264.471,138.4 267.283,138.4C 270.108,138.4 272.374,139.399 274.08,141.397C 275.786,143.395 276.639,145.954 276.639,149.075L 276.639,149.725C 276.639,152.858 275.789,155.421 274.089,157.412C 272.389,159.404 270.133,160.4 267.321,160.4C 264.483,160.4 262.211,159.404 260.505,157.412C 258.799,155.421 257.946,152.858 257.946,149.725L 257.946,149.075 Z M 260.289,149.712C 260.289,152.167 260.908,154.228 262.146,155.897C 263.383,157.565 265.108,158.4 267.321,158.4C 269.496,158.4 271.205,157.565 272.449,155.897C 273.693,154.228 274.314,152.167 274.314,149.712L 274.314,149.069C 274.314,146.656 273.689,144.608 272.439,142.925C 271.189,141.242 269.471,140.4 267.283,140.4C 265.096,140.4 263.383,141.242 262.146,142.925C 260.908,144.608 260.289,146.656 260.289,149.069L 260.289,149.712 Z "/>
		<path fill="#FFFFFF" fill-opacity="1" stroke-linejoin="round" d="M 283.627,138.8L 283.846,142.3C 284.521,141.058 285.422,140.098 286.549,139.419C 287.676,138.739 289.021,138.4 290.583,138.4C 292.196,138.4 293.546,138.792 294.633,139.575C 295.721,140.358 296.5,141.554 296.971,143.162C 297.608,141.675 298.517,140.509 299.696,139.665C 300.875,138.822 302.31,138.4 304.002,138.4C 306.252,138.4 307.989,139.151 309.214,140.653C 310.439,142.155 311.052,144.481 311.052,147.631L 311.052,160L 308.708,160L 308.708,147.569C 308.708,144.948 308.249,143.098 307.33,142.019C 306.411,140.939 305.133,140.4 303.496,140.4C 301.683,140.4 300.282,140.97 299.293,142.109C 298.303,143.249 297.692,144.708 297.458,146.487C 297.458,146.579 297.461,146.71 297.468,146.881C 297.474,147.052 297.477,147.177 297.477,147.256L 297.477,160L 295.114,160L 295.114,147.569C 295.114,145.002 294.649,143.165 293.718,142.059C 292.786,140.953 291.506,140.4 289.877,140.4C 288.227,140.4 286.917,140.822 285.946,141.665C 284.975,142.509 284.294,143.646 283.902,145.075L 283.902,160L 281.539,160L 281.539,138.8L 283.627,138.8 Z "/>
		<path fill="#FFFFFF" fill-opacity="1" stroke-linejoin="round" d="M 319.227,138.8L 319.446,142.3C 320.121,141.058 321.022,140.098 322.149,139.419C 323.276,138.739 324.621,138.4 326.183,138.4C 327.796,138.4 329.146,138.792 330.233,139.575C 331.321,140.358 332.1,141.554 332.571,143.162C 333.208,141.675 334.117,140.509 335.296,139.665C 336.475,138.822 337.91,138.4 339.602,138.4C 341.852,138.4 343.589,139.151 344.814,140.653C 346.039,142.155 346.652,144.481 346.652,147.631L 346.652,160L 344.308,160L 344.308,147.569C 344.308,144.948 343.849,143.098 342.93,142.019C 342.011,140.939 340.733,140.4 339.096,140.4C 337.283,140.4 335.882,140.97 334.893,142.109C 333.903,143.249 333.292,144.708 333.058,146.487C 333.058,146.579 333.061,146.71 333.068,146.881C 333.074,147.052 333.077,147.177 333.077,147.256L 333.077,160L 330.714,160L 330.714,147.569C 330.714,145.002 330.249,143.165 329.318,142.059C 328.386,140.953 327.106,140.4 325.477,140.4C 323.827,140.4 322.517,140.822 321.546,141.665C 320.575,142.509 319.894,143.646 319.502,145.075L 319.502,160L 317.139,160L 317.139,138.8L 319.227,138.8 Z "/>
		<path fill="#FFFFFF" fill-opacity="1" stroke-linejoin="round" d="M 366.702,156.525C 366.027,157.762 365.117,158.718 363.971,159.39C 362.825,160.063 361.471,160.4 359.908,160.4C 357.683,160.4 355.938,159.643 354.674,158.128C 353.409,156.613 352.777,154.264 352.777,151.081L 352.777,138.8L 355.121,138.8L 355.121,151.144C 355.121,153.731 355.56,155.587 356.439,156.712C 357.319,157.837 358.567,158.4 360.183,158.4C 361.954,158.4 363.367,158.001 364.421,157.203C 365.475,156.405 366.21,155.306 366.627,153.906L 366.627,138.8L 368.971,138.8L 368.971,160L 366.902,160L 366.702,156.525 Z "/>
		<path fill="#FFFFFF" fill-opacity="1" stroke-linejoin="round" d="M 377.327,138.8L 377.539,142.494C 378.219,141.189 379.134,140.181 380.286,139.469C 381.438,138.756 382.802,138.4 384.377,138.4C 386.669,138.4 388.413,139.102 389.611,140.506C 390.809,141.91 391.408,144.102 391.408,147.081L 391.408,160L 389.064,160L 389.064,147.075C 389.064,144.642 388.612,142.921 387.708,141.912C 386.804,140.904 385.519,140.4 383.852,140.4C 382.21,140.4 380.872,140.835 379.836,141.706C 378.801,142.577 378.056,143.733 377.602,145.175L 377.602,160L 375.258,160L 375.258,138.8L 377.327,138.8 Z "/>
		<path fill="#FFFFFF" fill-opacity="1" stroke-linejoin="round" d="M 400.277,160L 397.952,160L 397.952,138.8L 400.277,138.8L 400.277,160 Z M 400.277,132.8L 397.952,132.8L 397.952,129.6L 400.277,129.6L 400.277,132.8 Z "/>
		<path fill="#FFFFFF" fill-opacity="1" stroke-linejoin="round" d="M 410.527,133.2L 410.527,138.8L 415.177,138.8L 415.177,140.8L 410.527,140.8L 410.527,154.587C 410.527,155.971 410.778,156.952 411.28,157.531C 411.782,158.11 412.45,158.4 413.283,158.4C 413.662,158.4 414.03,158.384 414.386,158.353C 414.743,158.322 415.156,158.266 415.627,158.187L 415.977,159.887C 415.585,160.05 415.11,160.176 414.552,160.265C 413.994,160.355 413.433,160.4 412.871,160.4C 411.387,160.4 410.232,159.932 409.405,158.997C 408.578,158.061 408.164,156.579 408.164,154.55L 408.164,140.8L 404.514,140.8L 404.514,138.8L 408.164,138.8L 408.164,133.2L 410.527,133.2 Z "/>
		<path fill="#FFFFFF" fill-opacity="1" stroke-linejoin="round" d="M 426.052,154.175L 426.796,156.687L 426.914,156.687L 433.302,138.8L 435.914,138.8L 426.739,163.256C 426.189,164.685 425.479,165.9 424.608,166.9C 423.737,167.9 422.46,168.4 420.777,168.4C 420.506,168.4 420.175,168.372 419.783,168.315C 419.392,168.259 419.106,168.2 418.927,168.137L 419.196,166.262C 419.354,166.292 419.605,166.322 419.949,166.353C 420.293,166.384 420.544,166.4 420.702,166.4C 421.719,166.4 422.532,166.038 423.143,165.315C 423.753,164.593 424.275,163.664 424.708,162.531L 425.821,159.675L 417.652,138.8L 420.252,138.8L 426.052,154.175 Z "/>
		<rect x="437.527" y="146.8" fill="#FFFFFF" fill-opacity="1" stroke-linejoin="round" width="9.35623" height="2"/>
		<rect x="451.552" y="129.6" fill="#FFFFFF" fill-opacity="1" stroke-linejoin="round" width="2.32501" height="30.4"/>
		<path fill="#FFFFFF" fill-opacity="1" stroke-linejoin="round" d="M 468.389,160.4C 465.744,160.4 463.546,159.421 461.796,157.462C 460.046,155.504 459.171,153.023 459.171,150.019L 459.171,148.937C 459.171,145.908 460.039,143.395 461.777,141.397C 463.514,139.399 465.621,138.4 468.096,138.4C 470.687,138.4 472.725,139.234 474.208,140.903C 475.691,142.572 476.433,144.796 476.433,147.575L 476.433,149.6L 461.514,149.6L 461.514,150.156C 461.514,152.502 462.146,154.462 463.408,156.037C 464.671,157.612 466.331,158.4 468.389,158.4C 469.848,158.4 471.09,158.198 472.118,157.794C 473.145,157.389 474.023,156.81 474.752,156.056L 475.752,157.656C 474.956,158.494 473.95,159.16 472.733,159.656C 471.517,160.152 470.069,160.4 468.389,160.4 Z M 468.096,140.4C 466.362,140.4 464.91,141.075 463.739,142.425C 462.569,143.775 461.885,145.467 461.689,147.5L 461.727,147.6L 474.108,147.6L 474.108,147C 474.108,145.125 473.568,143.556 472.486,142.294C 471.405,141.031 469.941,140.4 468.096,140.4 Z "/>
		<path fill="#FFFFFF" fill-opacity="1" stroke-linejoin="round" d="M 480.339,149.569C 480.339,146.185 481.052,143.478 482.477,141.447C 483.902,139.415 485.892,138.4 488.446,138.4C 489.917,138.4 491.193,138.713 492.274,139.34C 493.355,139.968 494.254,140.856 494.971,142.006L 494.971,129.6L 497.289,129.6L 497.289,160L 495.221,160L 495.027,156.912C 494.323,158.037 493.418,158.9 492.311,159.5C 491.205,160.1 489.904,160.4 488.408,160.4C 485.879,160.4 483.902,159.456 482.477,157.569C 481.052,155.681 480.339,153.15 480.339,149.975L 480.339,149.569 Z M 482.683,149.981C 482.683,152.552 483.195,154.598 484.218,156.119C 485.24,157.639 486.779,158.4 488.833,158.4C 490.346,158.4 491.606,158.059 492.614,157.378C 493.623,156.697 494.408,155.752 494.971,154.544L 494.971,144.55C 494.433,143.317 493.677,142.317 492.702,141.55C 491.727,140.783 490.452,140.4 488.877,140.4C 486.819,140.4 485.272,141.249 484.236,142.947C 483.201,144.645 482.683,146.852 482.683,149.569L 482.683,149.981 Z "/>
		<rect x="514.408" y="131.6" fill="#FFFFFF" fill-opacity="1" stroke-linejoin="round" width="2.34375" height="28.4"/>
		<path fill="#FFFFFF" fill-opacity="1" stroke-linejoin="round" d="M 531.889,158.4C 533.439,158.4 534.807,157.959 535.993,157.078C 537.178,156.197 537.771,154.973 537.771,153.406L 539.839,153.406L 539.877,153.525C 539.944,155.479 539.162,157.113 537.533,158.428C 535.904,159.743 534.023,160.4 531.889,160.4C 529.01,160.4 526.786,159.41 525.218,157.431C 523.649,155.452 522.864,152.908 522.864,149.8L 522.864,148.981C 522.864,145.898 523.652,143.363 525.227,141.378C 526.802,139.393 529.017,138.4 531.871,138.4C 534.187,138.4 536.118,139.083 537.661,140.45C 539.205,141.817 539.95,143.612 539.896,145.837L 539.858,145.956L 537.771,145.956C 537.771,144.264 537.201,142.915 536.061,141.909C 534.922,140.903 533.525,140.4 531.871,140.4C 529.604,140.4 527.927,141.211 526.839,142.834C 525.752,144.457 525.208,146.502 525.208,148.969L 525.208,149.794C 525.208,152.298 525.749,154.358 526.83,155.975C 527.911,157.592 529.598,158.4 531.889,158.4 Z "/>
		<path fill="#FFFFFF" fill-opacity="1" stroke-linejoin="round" d="M 543.546,149.075C 543.546,145.954 544.399,143.395 546.105,141.397C 547.811,139.399 550.071,138.4 552.883,138.4C 555.708,138.4 557.974,139.399 559.68,141.397C 561.386,143.395 562.239,145.954 562.239,149.075L 562.239,149.725C 562.239,152.858 561.389,155.421 559.689,157.412C 557.989,159.404 555.733,160.4 552.921,160.4C 550.083,160.4 547.811,159.404 546.105,157.412C 544.399,155.421 543.546,152.858 543.546,149.725L 543.546,149.075 Z M 545.889,149.712C 545.889,152.167 546.508,154.228 547.746,155.897C 548.983,157.565 550.708,158.4 552.921,158.4C 555.096,158.4 556.805,157.565 558.049,155.897C 559.293,154.228 559.914,152.167 559.914,149.712L 559.914,149.069C 559.914,146.656 559.289,144.608 558.039,142.925C 556.789,141.242 555.071,140.4 552.883,140.4C 550.696,140.4 548.983,141.242 547.746,142.925C 546.508,144.608 545.889,146.656 545.889,149.069L 545.889,149.712 Z "/>
		<path fill="#FFFFFF" fill-opacity="1" stroke-linejoin="round" d="M 569.327,138.8L 569.539,142.494C 570.219,141.189 571.134,140.181 572.286,139.469C 573.438,138.756 574.802,138.4 576.377,138.4C 578.669,138.4 580.413,139.102 581.611,140.506C 582.809,141.91 583.408,144.102 583.408,147.081L 583.408,160L 581.064,160L 581.064,147.075C 581.064,144.642 580.612,142.921 579.708,141.912C 578.804,140.904 577.519,140.4 575.852,140.4C 574.21,140.4 572.872,140.835 571.836,141.706C 570.801,142.577 570.056,143.733 569.602,145.175L 569.602,160L 567.258,160L 567.258,138.8L 569.327,138.8 Z "/>
		<path fill="#FFFFFF" fill-opacity="1" stroke-linejoin="round" d="M 588.346,149.075C 588.346,145.954 589.199,143.395 590.905,141.397C 592.611,139.399 594.871,138.4 597.683,138.4C 600.508,138.4 602.774,139.399 604.48,141.397C 606.186,143.395 607.039,145.954 607.039,149.075L 607.039,149.725C 607.039,152.858 606.189,155.421 604.489,157.412C 602.789,159.404 600.533,160.4 597.721,160.4C 594.883,160.4 592.611,159.404 590.905,157.412C 589.199,155.421 588.346,152.858 588.346,149.725L 588.346,149.075 Z M 590.689,149.712C 590.689,152.167 591.308,154.228 592.546,155.897C 593.783,157.565 595.508,158.4 597.721,158.4C 599.896,158.4 601.605,157.565 602.849,155.897C 604.093,154.228 604.714,152.167 604.714,149.712L 604.714,149.069C 604.714,146.656 604.089,144.608 602.839,142.925C 601.589,141.242 599.871,140.4 597.683,140.4C 595.496,140.4 593.783,141.242 592.546,142.925C 591.308,144.608 590.689,146.656 590.689,149.069L 590.689,149.712 Z "/>
		<path fill="#FFFFFF" fill-opacity="1" stroke-linejoin="round" d="M 611.139,149.569C 611.139,146.185 611.859,143.478 613.299,141.447C 614.738,139.415 616.739,138.4 619.302,138.4C 620.802,138.4 622.099,138.73 623.193,139.39C 624.286,140.051 625.189,140.981 625.902,142.181L 626.177,138.8L 628.152,138.8L 628.152,159.612C 628.152,162.325 627.4,164.468 625.896,166.04C 624.391,167.613 622.298,168.4 619.614,168.4C 618.598,168.4 617.516,168.281 616.371,168.044C 615.225,167.806 614.223,167.483 613.364,167.075L 613.971,165.131C 614.804,165.548 615.683,165.863 616.608,166.078C 617.533,166.293 618.523,166.4 619.577,166.4C 621.635,166.4 623.188,165.809 624.236,164.628C 625.284,163.447 625.808,161.804 625.808,159.7L 625.808,157.05C 625.091,158.121 624.186,158.947 623.093,159.528C 621.999,160.109 620.723,160.4 619.264,160.4C 616.727,160.4 614.738,159.453 613.299,157.559C 611.859,155.665 611.139,153.137 611.139,149.975L 611.139,149.569 Z M 613.483,149.981C 613.483,152.539 614.004,154.582 615.046,156.109C 616.087,157.636 617.637,158.4 619.696,158.4C 621.204,158.4 622.463,158.051 623.474,157.353C 624.484,156.655 625.262,155.694 625.808,154.469L 625.808,144.625C 625.3,143.387 624.554,142.374 623.571,141.584C 622.587,140.795 621.308,140.4 619.733,140.4C 617.675,140.4 616.119,141.252 615.064,142.956C 614.01,144.66 613.483,146.864 613.483,149.569L 613.483,149.981 Z "/>
		<path fill="#FFFFFF" fill-opacity="1" stroke-linejoin="round" d="M 644.183,140.519L 642.446,140.4C 640.975,140.4 639.768,140.821 638.824,141.662C 637.88,142.504 637.206,143.662 636.802,145.137L 636.802,160L 634.458,160L 634.458,138.8L 636.508,138.8L 636.802,142.319L 636.802,142.556C 637.414,141.248 638.234,140.228 639.261,139.497C 640.288,138.765 641.512,138.4 642.933,138.4C 643.233,138.4 643.523,138.42 643.802,138.459C 644.081,138.499 644.312,138.542 644.496,138.587L 644.183,140.519 Z "/>
		<path fill="#FFFFFF" fill-opacity="1" stroke-linejoin="round" d="M 661.433,160C 661.279,159.279 661.17,158.657 661.105,158.134C 661.04,157.611 661.008,157.081 661.008,156.544C 660.225,157.652 659.182,158.572 657.88,159.303C 656.578,160.034 655.114,160.4 653.489,160.4C 651.431,160.4 649.832,159.856 648.692,158.769C 647.553,157.681 646.983,156.227 646.983,154.406C 646.983,152.464 647.826,150.911 649.511,149.747C 651.197,148.582 653.473,148 656.339,148L 661.008,148L 661.008,145.331C 661.008,143.794 660.523,142.587 659.552,141.712C 658.581,140.837 657.223,140.4 655.477,140.4C 653.852,140.4 652.502,140.819 651.427,141.656C 650.352,142.494 649.814,143.517 649.814,144.725L 647.664,144.706L 647.627,144.587C 647.548,142.987 648.266,141.556 649.783,140.294C 651.3,139.031 653.231,138.4 655.577,138.4C 657.906,138.4 659.781,138.995 661.202,140.184C 662.623,141.374 663.333,143.079 663.333,145.3L 663.333,155.725C 663.333,156.471 663.375,157.197 663.458,157.903C 663.541,158.609 663.681,159.308 663.877,160L 661.433,160 Z M 653.758,158.4C 655.437,158.4 656.922,157.998 658.211,157.194C 659.501,156.389 660.433,155.364 661.008,154.119L 661.008,150L 656.302,150C 654.177,150 652.48,150.442 651.211,151.325C 649.942,152.208 649.308,153.304 649.308,154.612C 649.308,155.729 649.702,156.639 650.489,157.344C 651.277,158.048 652.366,158.4 653.758,158.4 Z "/>
		<path fill="#FFFFFF" fill-opacity="1" stroke-linejoin="round" d="M 686.671,149.975C 686.671,153.15 685.954,155.681 684.521,157.569C 683.087,159.456 681.114,160.4 678.602,160.4C 677.119,160.4 675.82,160.12 674.705,159.559C 673.59,158.999 672.683,158.196 671.983,157.15L 671.983,168L 669.639,168L 669.639,138.8L 671.608,138.8L 671.902,142.081C 672.606,140.906 673.514,139.999 674.627,139.359C 675.739,138.72 677.052,138.4 678.564,138.4C 681.102,138.4 683.087,139.415 684.521,141.447C 685.954,143.478 686.671,146.185 686.671,149.569L 686.671,149.975 Z M 684.327,149.537C 684.327,146.846 683.793,144.65 682.724,142.95C 681.655,141.25 680.091,140.4 678.033,140.4C 676.458,140.4 675.179,140.776 674.196,141.528C 673.212,142.28 672.475,143.256 671.983,144.456L 671.983,154.656C 672.516,155.819 673.287,156.733 674.296,157.4C 675.304,158.067 676.564,158.4 678.077,158.4C 680.119,158.4 681.671,157.629 682.733,156.087C 683.796,154.546 684.327,152.5 684.327,149.95L 684.327,149.537 Z "/>
		<path fill="#FFFFFF" fill-opacity="1" stroke-linejoin="round" d="M 694.402,142.419C 695.106,141.152 696.044,140.165 697.214,139.459C 698.385,138.753 699.752,138.4 701.314,138.4C 703.539,138.4 705.248,139.093 706.439,140.478C 707.631,141.863 708.227,144.012 708.227,146.925L 708.227,160L 705.883,160L 705.883,146.862C 705.883,144.558 705.431,142.905 704.527,141.903C 703.623,140.901 702.377,140.4 700.789,140.4C 699.185,140.4 697.847,140.822 696.774,141.665C 695.701,142.509 694.91,143.633 694.402,145.037L 694.402,160L 692.058,160L 692.058,129.6L 694.402,129.6L 694.402,142.419 Z "/>
		<path fill="#FFFFFF" fill-opacity="1" stroke-linejoin="round" d="M 720.452,154.175L 721.196,156.687L 721.314,156.687L 727.702,138.8L 730.314,138.8L 721.139,163.256C 720.589,164.685 719.879,165.9 719.008,166.9C 718.137,167.9 716.86,168.4 715.177,168.4C 714.906,168.4 714.575,168.372 714.183,168.315C 713.792,168.259 713.506,168.2 713.327,168.137L 713.596,166.262C 713.754,166.292 714.005,166.322 714.349,166.353C 714.693,166.384 714.944,166.4 715.102,166.4C 716.119,166.4 716.932,166.038 717.543,165.315C 718.153,164.593 718.675,163.664 719.108,162.531L 720.221,159.675L 712.052,138.8L 714.652,138.8L 720.452,154.175 Z "/>
	</g>
	<path fill="#FFFFFF" fill-opacity="0.203922" stroke-linejoin="round" d="M 0,83.8906L 0,0L 243.011,0L 0,83.8906 Z "/>
	<g>
		<path fill="#FFFFFF" fill-opacity="1" stroke-linejoin="round" d="M 22.2467,29.5267L 22.5675,30.6875L 22.62,30.6875L 22.9671,29.5267L 25.6475,22.1067L 26.7763,22.1067L 23.0313,32L 22.1563,32L 18.4025,22.1067L 19.5313,22.1067L 22.2467,29.5267 Z "/>
		<path fill="#FFFFFF" fill-opacity="1" stroke-linejoin="round" d="M 33.3271,32L 32.2333,32L 32.2333,19.8667L 28.8617,20.24L 28.8617,19.4933L 33.3271,18.7467L 33.3271,32 Z "/>
		<rect x="38.9358" y="30.5067" fill="#FFFFFF" fill-opacity="1" stroke-linejoin="round" width="1.24833" height="1.49332"/>
		<path fill="#FFFFFF" fill-opacity="1" stroke-linejoin="round" d="M 51.5446,26.855C 51.5446,28.5661 51.1742,29.8825 50.4333,30.8042C 49.6925,31.7258 48.6629,32.1867 47.3446,32.1867C 46.0321,32.1867 45.0005,31.7244 44.25,30.7998C 43.4994,29.8752 43.1242,28.5603 43.1242,26.855L 43.1242,23.9004C 43.1242,22.1952 43.4946,20.8788 44.2354,19.9513C 44.9762,19.0237 46.0068,18.56 47.3271,18.56C 48.6454,18.56 49.6779,19.0237 50.4246,19.9513C 51.1712,20.8788 51.5446,22.1952 51.5446,23.9004L 51.5446,26.855 Z M 50.4508,23.7167C 50.4508,22.3594 50.1835,21.3163 49.6487,20.5871C 49.114,19.8579 48.3401,19.4933 47.3271,19.4933C 46.3121,19.4933 45.5401,19.8579 45.0112,20.5871C 44.4824,21.3163 44.2179,22.3594 44.2179,23.7167L 44.2179,27.0125C 44.2179,28.3561 44.4867,29.3988 45.0244,30.1406C 45.562,30.8824 46.3354,31.2533 47.3446,31.2533C 48.3537,31.2533 49.1237,30.8839 49.6546,30.145C 50.1854,29.4061 50.4508,28.3619 50.4508,27.0125L 50.4508,23.7167 Z "/>
		<rect x="54.2425" y="30.5067" fill="#FFFFFF" fill-opacity="1" stroke-linejoin="round" width="1.24833" height="1.49332"/>
		<path fill="#FFFFFF" fill-opacity="1" stroke-linejoin="round" d="M 66.2796,22.1534C 66.2796,22.8689 66.0696,23.4945 65.6496,24.0302C 65.2296,24.5659 64.6705,24.9543 63.9725,25.1954C 64.7814,25.4443 65.4303,25.859 65.9194,26.4394C 66.4084,27.0198 66.6529,27.6989 66.6529,28.4767C 66.6529,29.6686 66.2548,30.5849 65.4585,31.2256C 64.6623,31.8663 63.6381,32.1867 62.3858,32.1867C 61.1103,32.1867 60.0792,31.8678 59.2927,31.23C 58.5062,30.5922 58.1129,29.6744 58.1129,28.4767C 58.1129,27.6931 58.3526,27.011 58.8319,26.4306C 59.3112,25.8502 59.9553,25.4355 60.7642,25.1867C 60.0661,24.9456 59.5119,24.5586 59.1017,24.0258C 58.6914,23.4931 58.4862,22.8689 58.4862,22.1534C 58.4862,21.0158 58.846,20.1326 59.5654,19.5035C 60.2849,18.8745 61.2192,18.56 62.3683,18.56C 63.5097,18.56 64.4469,18.876 65.18,19.5079C 65.913,20.1399 66.2796,21.0217 66.2796,22.1534 Z M 65.5592,28.4796C 65.5592,27.6435 65.2553,26.9634 64.6477,26.4394C 64.0401,25.9153 63.2803,25.6534 62.3683,25.6534C 61.4447,25.6534 60.6849,25.9153 60.089,26.4394C 59.493,26.9634 59.195,27.6435 59.195,28.4796C 59.195,29.3468 59.4901,30.0259 60.0802,30.5169C 60.6703,31.0078 61.4389,31.2533 62.3858,31.2533C 63.3094,31.2533 64.0692,31.0064 64.6652,30.5125C 65.2612,30.0186 65.5592,29.341 65.5592,28.4796 Z M 65.1858,22.1475C 65.1858,21.3872 64.9165,20.7548 64.3779,20.2502C 63.8393,19.7456 63.1694,19.4933 62.3683,19.4933C 61.5478,19.4933 60.8765,19.7349 60.3544,20.2181C 59.8323,20.7013 59.5712,21.3445 59.5712,22.1475C 59.5712,22.9272 59.8337,23.5509 60.3587,24.0185C 60.8837,24.4862 61.5594,24.72 62.3858,24.72C 63.1947,24.72 63.8636,24.4862 64.3925,24.0185C 64.9214,23.5509 65.1858,22.9272 65.1858,22.1475 Z "/>
		<rect x="67.9129" y="25.84" fill="#FFFFFF" fill-opacity="1" stroke-linejoin="round" width="4.36626" height="0.93335"/>
		<path fill="#FFFFFF" fill-opacity="1" stroke-linejoin="round" d="M 82.2688,27.3217C 82.2688,28.8033 81.9343,29.9846 81.2654,30.8654C 80.5965,31.7462 79.6758,32.1867 78.5033,32.1867C 77.78,32.1867 77.1573,32.0418 76.6352,31.7521C 76.1131,31.4624 75.6907,31.0462 75.3679,30.5038L 75.2513,32L 74.3121,32L 74.3121,17.8133L 75.4058,17.8133L 75.4058,23.6583C 75.7325,23.1042 76.151,22.6759 76.6615,22.3735C 77.1719,22.0712 77.78,21.92 78.4858,21.92C 79.67,21.92 80.5965,22.394 81.2654,23.3419C 81.9343,24.2898 82.2688,25.5532 82.2688,27.1321L 82.2688,27.3217 Z M 81.1663,27.1321C 81.1663,25.8643 80.9232,24.8342 80.4371,24.0419C 79.951,23.2495 79.2306,22.8533 78.2758,22.8533C 77.5156,22.8533 76.9031,23.0429 76.4383,23.4221C 75.9736,23.8012 75.6294,24.2883 75.4058,24.8833L 75.4058,29.3721C 75.6489,29.9476 76.012,30.4051 76.4952,30.7444C 76.9784,31.0837 77.5778,31.2533 78.2933,31.2533C 79.2481,31.2533 79.9656,30.8985 80.4458,30.1888C 80.9261,29.479 81.1663,28.5243 81.1663,27.3246L 81.1663,27.1321 Z "/>
		<path fill="#FFFFFF" fill-opacity="1" stroke-linejoin="round" d="M 88.4754,32.1867C 87.2407,32.1867 86.215,31.7297 85.3983,30.8158C 84.5817,29.9019 84.1733,28.744 84.1733,27.3421L 84.1733,26.8375C 84.1733,25.4239 84.5788,24.2509 85.3896,23.3185C 86.2004,22.3862 87.1833,21.92 88.3383,21.92C 89.5478,21.92 90.4986,22.3094 91.1908,23.0881C 91.8831,23.8669 92.2292,24.9047 92.2292,26.2017L 92.2292,27.1467L 85.2671,27.1467L 85.2671,27.4063C 85.2671,28.501 85.5617,29.4158 86.1508,30.1508C 86.74,30.8858 87.5149,31.2533 88.4754,31.2533C 89.156,31.2533 89.7359,31.159 90.2152,30.9704C 90.6945,30.7818 91.1043,30.5115 91.4446,30.1596L 91.9112,30.9063C 91.5399,31.2971 91.0703,31.6082 90.5025,31.8396C 89.9347,32.071 89.259,32.1867 88.4754,32.1867 Z M 88.3383,22.8533C 87.5294,22.8533 86.8518,23.1683 86.3054,23.7983C 85.759,24.4283 85.4401,25.2178 85.3487,26.1667L 85.3662,26.2133L 91.1442,26.2133L 91.1442,25.9333C 91.1442,25.0583 90.8919,24.3263 90.3873,23.7371C 89.8827,23.1479 89.1997,22.8533 88.3383,22.8533 Z "/>
		<path fill="#FFFFFF" fill-opacity="1" stroke-linejoin="round" d="M 96.1929,19.4933L 96.1929,22.1067L 98.3629,22.1067L 98.3629,23.04L 96.1929,23.04L 96.1929,29.4742C 96.1929,30.1197 96.3101,30.5776 96.5444,30.8479C 96.7787,31.1182 97.0903,31.2533 97.4792,31.2533C 97.6561,31.2533 97.8277,31.246 97.994,31.2315C 98.1602,31.2169 98.3532,31.1911 98.5729,31.1542L 98.7362,31.9475C 98.5535,32.0233 98.3318,32.0822 98.0713,32.124C 97.8107,32.1658 97.5492,32.1867 97.2867,32.1867C 96.5944,32.1867 96.0553,31.9684 95.6694,31.5319C 95.2834,31.0954 95.0904,30.4036 95.0904,29.4567L 95.0904,23.04L 93.3871,23.04L 93.3871,22.1067L 95.0904,22.1067L 95.0904,19.4933L 96.1929,19.4933 Z "/>
		<path fill="#FFFFFF" fill-opacity="1" stroke-linejoin="round" d="M 106.882,32C 106.811,31.6636 106.759,31.3734 106.729,31.1294C 106.699,30.8853 106.684,30.6379 106.684,30.3871C 106.319,30.9043 105.832,31.3335 105.224,31.6748C 104.617,32.016 103.934,32.1867 103.175,32.1867C 102.215,32.1867 101.469,31.9329 100.937,31.4254C 100.405,30.9179 100.139,30.2393 100.139,29.3896C 100.139,28.4835 100.532,27.7587 101.319,27.2152C 102.105,26.6717 103.168,26.4 104.505,26.4L 106.684,26.4L 106.684,25.1546C 106.684,24.4371 106.458,23.8742 106.005,23.4659C 105.552,23.0575 104.918,22.8533 104.103,22.8533C 103.345,22.8533 102.715,23.0487 102.213,23.4396C 101.711,23.8304 101.46,24.3078 101.46,24.8717L 100.457,24.8629L 100.44,24.8075C 100.403,24.0608 100.738,23.3929 101.446,22.8037C 102.154,22.2146 103.055,21.92 104.15,21.92C 105.237,21.92 106.112,22.1976 106.775,22.7527C 107.438,23.3078 107.769,24.1036 107.769,25.14L 107.769,30.005C 107.769,30.3531 107.789,30.6919 107.827,31.0215C 107.866,31.351 107.932,31.6772 108.023,32L 106.882,32 Z M 103.301,31.2533C 104.084,31.2533 104.777,31.0657 105.379,30.6904C 105.981,30.3152 106.416,29.8368 106.684,29.2554L 106.684,27.3333L 104.488,27.3333C 103.496,27.3333 102.704,27.5395 102.112,27.9517C 101.52,28.3639 101.224,28.8753 101.224,29.4858C 101.224,30.0069 101.408,30.4318 101.775,30.7604C 102.143,31.089 102.651,31.2533 103.301,31.2533 Z "/>
	</g>
	<rect x="912" y="247" fill="#FFFFFF" fill-opacity="0.403922" stroke-width="0.2" stroke-linejoin="round" width="1" height="38"/>
	<rect x="937" y="247" fill="#FFFFFF" fill-opacity="0.403922" stroke-width="0.2" stroke-linejoin="round" width="1" height="38"/>
	<rect x="906" y="253" fill="#FFFFFF" fill-opacity="0.403922" stroke-width="0.2" stroke-linejoin="round" width="38" height="1"/>
	<rect x="906" y="278" fill="#FFFFFF" fill-opacity="0.403922" stroke-width="0.2" stroke-linejoin="round" width="38" height="1"/>
	<path fill="#FFFFFF" fill-opacity="1" fill-rule="evenodd" stroke-width="0.2" stroke-linejoin="round" d="M 924.999,256C 919.478,256 915,260.477 915,266.001C 915,270.418 917.865,274.166 921.839,275.489C 922.339,275.581 922.521,275.272 922.521,275.007C 922.521,274.77 922.513,274.141 922.508,273.306C 919.726,273.91 919.139,271.966 919.139,271.966C 918.685,270.81 918.029,270.503 918.029,270.503C 917.121,269.882 918.098,269.895 918.098,269.895C 919.102,269.966 919.629,270.926 919.629,270.926C 920.521,272.454 921.97,272.012 922.54,271.756C 922.631,271.11 922.889,270.67 923.175,270.42C 920.954,270.167 918.62,269.309 918.62,265.477C 918.62,264.386 919.009,263.493 919.649,262.794C 919.546,262.541 919.203,261.524 919.747,260.147C 919.747,260.147 920.586,259.879 922.497,261.173C 923.294,260.951 924.15,260.84 925,260.836C 925.85,260.84 926.705,260.951 927.504,261.173C 929.413,259.879 930.251,260.147 930.251,260.147C 930.797,261.524 930.454,262.541 930.351,262.794C 930.992,263.493 931.379,264.386 931.379,265.477C 931.379,269.319 929.04,270.164 926.813,270.412C 927.172,270.721 927.492,271.331 927.492,272.264C 927.492,273.601 927.479,274.679 927.479,275.007C 927.479,275.274 927.66,275.585 928.167,275.488C 932.137,274.163 935,270.417 935,266.001C 935,260.477 930.522,256 924.999,256 Z "/>
	<path fill="#FFFFFF" fill-opacity="1" stroke-width="0.2" stroke-linejoin="round" d="M 530,267L 533,267L 533,274L 536,274L 536,267L 539,267L 539,264L 530,264M 536,259L 536,262L 541,262L 541,274L 544,274L 544,262L 549,262L 549,259L 536,259 Z "/>
	<rect x="526" y="247" fill="#FFFFFF" fill-opacity="0.403922" stroke-width="0.2" stroke-linejoin="round" width="1" height="38"/>
	<rect x="551" y="247" fill="#FFFFFF" fill-opacity="0.403922" stroke-width="0.2" stroke-linejoin="round" width="1" height="38"/>
	<rect x="520" y="253" fill="#FFFFFF" fill-opacity="0.403922" stroke-width="0.2" stroke-linejoin="round" width="38" height="1"/>
	<rect x="520" y="278" fill="#FFFFFF" fill-opacity="0.403922" stroke-width="0.2" stroke-linejoin="round" width="38" height="1"/>
	<path fill="#FFFFFF" fill-opacity="1" stroke-width="0.2" stroke-linejoin="round" d="M 875,263L 875,258L 882,258L 882,263L 892,263L 892,270L 887,270L 887,275L 880,275L 880,270L 870,270L 870,263L 875,263 Z M 885,270L 882,270L 882,273L 885,273L 885,270 Z M 877,263L 880,263L 880,260L 877,260L 877,263 Z M 875,268L 875,265L 872,265L 872,268L 875,268 Z M 887,265L 887,268L 890,268L 890,265L 887,265 Z M 882,265L 882,268L 885,268L 885,265L 882,265 Z M 877,265L 877,268L 880,268L 880,265L 877,265 Z "/>
	<rect x="868" y="247" fill="#FFFFFF" fill-opacity="0.403922" stroke-width="0.2" stroke-linejoin="round" width="1" height="38"/>
	<rect x="893" y="247" fill="#FFFFFF" fill-opacity="0.403922" stroke-width="0.2" stroke-linejoin="round" width="1" height="38"/>
	<rect x="862" y="253" fill="#FFFFFF" fill-opacity="0.403922" stroke-width="0.2" stroke-linejoin="round" width="38" height="1"/>
	<rect x="862" y="278" fill="#FFFFFF" fill-opacity="0.403922" stroke-width="0.2" stroke-linejoin="round" width="38" height="1"/>
	<path fill="#FFFFFF" fill-opacity="0.203922" stroke-linejoin="round" d="M 820.366,571.784L 1204,346.284L 1058.06,98L 674.425,323.499L 820.366,571.784 Z "/>
</svg>
